<?xml version="1.0" encoding="UTF-8" standalone="no"?>
<!DOCTYPE svg PUBLIC "-//W3C//DTD SVG 1.1//EN"
 "http://www.w3.org/Graphics/SVG/1.1/DTD/svg11.dtd">
<!-- Generated by graphviz version 2.43.0 (0)
 -->
<!-- Title: %3 Pages: 1 -->
<svg width="421pt" height="525pt"
 viewBox="0.00 0.00 421.00 525.00" xmlns="http://www.w3.org/2000/svg" xmlns:xlink="http://www.w3.org/1999/xlink">
<g id="graph0" class="graph" transform="scale(1 1) rotate(0) translate(4 521)">
<title>%3</title>
<polygon fill="#eeeeee" stroke="transparent" points="-4,4 -4,-521 417,-521 417,4 -4,4"/>
<!-- UserORM -->
<g id="node1" class="node">
<title>UserORM</title>
<g id="a_node1"><a xlink:href="http://UserORM_details.html" xlink:title="&lt;TABLE&gt;">
<polygon fill="#3f51b5" stroke="transparent" points="17,-493.5 17,-512.5 217,-512.5 217,-493.5 17,-493.5"/>
<polygon fill="none" stroke="black" points="17,-493.5 17,-512.5 217,-512.5 217,-493.5 17,-493.5"/>
<text text-anchor="start" x="91" y="-499.9" font-family="Roboto" font-size="12.00" fill="white">UserORM</text>
<polygon fill="#bbdefb" stroke="transparent" points="17,-474.5 17,-493.5 90,-493.5 90,-474.5 17,-474.5"/>
<polygon fill="none" stroke="black" points="17,-474.5 17,-493.5 90,-493.5 90,-474.5 17,-474.5"/>
<text text-anchor="start" x="48.5" y="-480.9" font-family="Roboto" font-size="12.00">id</text>
<polygon fill="#bbdefb" stroke="transparent" points="90,-474.5 90,-493.5 217,-493.5 217,-474.5 90,-474.5"/>
<polygon fill="none" stroke="black" points="90,-474.5 90,-493.5 217,-493.5 217,-474.5 90,-474.5"/>
<text text-anchor="start" x="116.5" y="-480.9" font-family="Roboto" font-size="12.00">INTEGER (PK)</text>
<polygon fill="#bbdefb" stroke="transparent" points="17,-455.5 17,-474.5 90,-474.5 90,-455.5 17,-455.5"/>
<polygon fill="none" stroke="black" points="17,-455.5 17,-474.5 90,-474.5 90,-455.5 17,-455.5"/>
<text text-anchor="start" x="34.5" y="-461.9" font-family="Roboto" font-size="12.00">user_id</text>
<polygon fill="#bbdefb" stroke="transparent" points="90,-455.5 90,-474.5 217,-474.5 217,-455.5 90,-455.5"/>
<polygon fill="none" stroke="black" points="90,-455.5 90,-474.5 217,-474.5 217,-455.5 90,-455.5"/>
<text text-anchor="start" x="115.5" y="-461.9" font-family="Roboto" font-size="12.00">BIGINT (Index)</text>
<polygon fill="#bbdefb" stroke="transparent" points="17,-436.5 17,-455.5 90,-455.5 90,-436.5 17,-436.5"/>
<polygon fill="none" stroke="black" points="17,-436.5 17,-455.5 90,-455.5 90,-436.5 17,-436.5"/>
<text text-anchor="start" x="27" y="-442.9" font-family="Roboto" font-size="12.00">username</text>
<polygon fill="#bbdefb" stroke="transparent" points="90,-436.5 90,-455.5 217,-455.5 217,-436.5 90,-436.5"/>
<polygon fill="none" stroke="black" points="90,-436.5 90,-455.5 217,-455.5 217,-436.5 90,-436.5"/>
<text text-anchor="start" x="93" y="-442.9" font-family="Roboto" font-size="12.00">VARCHAR(255) (Index)</text>
<polygon fill="#bbdefb" stroke="transparent" points="17,-417.5 17,-436.5 90,-436.5 90,-417.5 17,-417.5"/>
<polygon fill="none" stroke="black" points="17,-417.5 17,-436.5 90,-436.5 90,-417.5 17,-417.5"/>
<text text-anchor="start" x="28" y="-423.9" font-family="Roboto" font-size="12.00">firstname</text>
<polygon fill="#bbdefb" stroke="transparent" points="90,-417.5 90,-436.5 217,-436.5 217,-417.5 90,-417.5"/>
<polygon fill="none" stroke="black" points="90,-417.5 90,-436.5 217,-436.5 217,-417.5 90,-417.5"/>
<text text-anchor="start" x="93" y="-423.9" font-family="Roboto" font-size="12.00">VARCHAR(255) (Index)</text>
<polygon fill="#bbdefb" stroke="transparent" points="17,-398.5 17,-417.5 90,-417.5 90,-398.5 17,-398.5"/>
<polygon fill="none" stroke="black" points="17,-398.5 17,-417.5 90,-417.5 90,-398.5 17,-398.5"/>
<text text-anchor="start" x="28.5" y="-404.9" font-family="Roboto" font-size="12.00">lastname</text>
<polygon fill="#bbdefb" stroke="transparent" points="90,-398.5 90,-417.5 217,-417.5 217,-398.5 90,-398.5"/>
<polygon fill="none" stroke="black" points="90,-398.5 90,-417.5 217,-417.5 217,-398.5 90,-398.5"/>
<text text-anchor="start" x="93" y="-404.9" font-family="Roboto" font-size="12.00">VARCHAR(255) (Index)</text>
<polygon fill="#bbdefb" stroke="transparent" points="17,-379.5 17,-398.5 90,-398.5 90,-379.5 17,-379.5"/>
<polygon fill="none" stroke="black" points="17,-379.5 17,-398.5 90,-398.5 90,-379.5 17,-379.5"/>
<text text-anchor="start" x="20" y="-385.9" font-family="Roboto" font-size="12.00">is_superuser</text>
<polygon fill="#bbdefb" stroke="transparent" points="90,-379.5 90,-398.5 217,-398.5 217,-379.5 90,-379.5"/>
<polygon fill="none" stroke="black" points="90,-379.5 90,-398.5 217,-398.5 217,-379.5 90,-379.5"/>
<text text-anchor="start" x="107.5" y="-385.9" font-family="Roboto" font-size="12.00">BOOLEAN (Index)</text>
<polygon fill="#bbdefb" stroke="transparent" points="17,-360.5 17,-379.5 90,-379.5 90,-360.5 17,-360.5"/>
<polygon fill="none" stroke="black" points="17,-360.5 17,-379.5 90,-379.5 90,-360.5 17,-360.5"/>
<text text-anchor="start" x="26" y="-366.9" font-family="Roboto" font-size="12.00">created_at</text>
<polygon fill="#bbdefb" stroke="transparent" points="90,-360.5 90,-379.5 217,-379.5 217,-360.5 90,-360.5"/>
<polygon fill="none" stroke="black" points="90,-360.5 90,-379.5 217,-379.5 217,-360.5 90,-360.5"/>
<text text-anchor="start" x="114.5" y="-366.9" font-family="Roboto" font-size="12.00">TIMESTAMP ()</text>
<polygon fill="#bbdefb" stroke="transparent" points="17,-341.5 17,-360.5 90,-360.5 90,-341.5 17,-341.5"/>
<polygon fill="none" stroke="black" points="17,-341.5 17,-360.5 90,-360.5 90,-341.5 17,-341.5"/>
<text text-anchor="start" x="23.5" y="-347.9" font-family="Roboto" font-size="12.00">updated_at</text>
<polygon fill="#bbdefb" stroke="transparent" points="90,-341.5 90,-360.5 217,-360.5 217,-341.5 90,-341.5"/>
<polygon fill="none" stroke="black" points="90,-341.5 90,-360.5 217,-360.5 217,-341.5 90,-341.5"/>
<text text-anchor="start" x="114.5" y="-347.9" font-family="Roboto" font-size="12.00">TIMESTAMP ()</text>
</a>
</g>
</g>
<!-- ChannelORM -->
<g id="node2" class="node">
<title>ChannelORM</title>
<g id="a_node2"><a xlink:href="http://ChannelORM_details.html" xlink:title="&lt;TABLE&gt;">
<polygon fill="#3f51b5" stroke="transparent" points="8,-267.5 8,-286.5 226,-286.5 226,-267.5 8,-267.5"/>
<polygon fill="none" stroke="black" points="8,-267.5 8,-286.5 226,-286.5 226,-267.5 8,-267.5"/>
<text text-anchor="start" x="81.5" y="-273.9" font-family="Roboto" font-size="12.00" fill="white">ChannelORM</text>
<polygon fill="#bbdefb" stroke="transparent" points="8,-248.5 8,-267.5 99,-267.5 99,-248.5 8,-248.5"/>
<polygon fill="none" stroke="black" points="8,-248.5 8,-267.5 99,-267.5 99,-248.5 8,-248.5"/>
<text text-anchor="start" x="48.5" y="-254.9" font-family="Roboto" font-size="12.00">id</text>
<polygon fill="#bbdefb" stroke="transparent" points="99,-248.5 99,-267.5 226,-267.5 226,-248.5 99,-248.5"/>
<polygon fill="none" stroke="black" points="99,-248.5 99,-267.5 226,-267.5 226,-248.5 99,-248.5"/>
<text text-anchor="start" x="125.5" y="-254.9" font-family="Roboto" font-size="12.00">INTEGER (PK)</text>
<polygon fill="#bbdefb" stroke="transparent" points="8,-229.5 8,-248.5 99,-248.5 99,-229.5 8,-229.5"/>
<polygon fill="none" stroke="black" points="8,-229.5 8,-248.5 99,-248.5 99,-229.5 8,-229.5"/>
<text text-anchor="start" x="46.5" y="-235.9" font-family="Roboto" font-size="12.00">url</text>
<polygon fill="#bbdefb" stroke="transparent" points="99,-229.5 99,-248.5 226,-248.5 226,-229.5 99,-229.5"/>
<polygon fill="none" stroke="black" points="99,-229.5 99,-248.5 226,-248.5 226,-229.5 99,-229.5"/>
<text text-anchor="start" x="102" y="-235.9" font-family="Roboto" font-size="12.00">VARCHAR(255) (Index)</text>
<polygon fill="#bbdefb" stroke="transparent" points="8,-210.5 8,-229.5 99,-229.5 99,-210.5 8,-210.5"/>
<polygon fill="none" stroke="black" points="8,-210.5 8,-229.5 99,-229.5 99,-210.5 8,-210.5"/>
<text text-anchor="start" x="40.5" y="-216.9" font-family="Roboto" font-size="12.00">label</text>
<polygon fill="#bbdefb" stroke="transparent" points="99,-210.5 99,-229.5 226,-229.5 226,-210.5 99,-210.5"/>
<polygon fill="none" stroke="black" points="99,-210.5 99,-229.5 226,-229.5 226,-210.5 99,-210.5"/>
<text text-anchor="start" x="102" y="-216.9" font-family="Roboto" font-size="12.00">VARCHAR(255) (Index)</text>
<polygon fill="#bbdefb" stroke="transparent" points="8,-191.5 8,-210.5 99,-210.5 99,-191.5 8,-191.5"/>
<polygon fill="none" stroke="black" points="8,-191.5 8,-210.5 99,-210.5 99,-191.5 8,-191.5"/>
<text text-anchor="start" x="32" y="-197.9" font-family="Roboto" font-size="12.00">enabled</text>
<polygon fill="#bbdefb" stroke="transparent" points="99,-191.5 99,-210.5 226,-210.5 226,-191.5 99,-191.5"/>
<polygon fill="none" stroke="black" points="99,-191.5 99,-210.5 226,-210.5 226,-191.5 99,-191.5"/>
<text text-anchor="start" x="116.5" y="-197.9" font-family="Roboto" font-size="12.00">BOOLEAN (Index)</text>
<polygon fill="#bbdefb" stroke="transparent" points="8,-172.5 8,-191.5 99,-191.5 99,-172.5 8,-172.5"/>
<polygon fill="none" stroke="black" points="8,-172.5 8,-191.5 99,-191.5 99,-172.5 8,-172.5"/>
<text text-anchor="start" x="26" y="-178.9" font-family="Roboto" font-size="12.00">created_at</text>
<polygon fill="#bbdefb" stroke="transparent" points="99,-172.5 99,-191.5 226,-191.5 226,-172.5 99,-172.5"/>
<polygon fill="none" stroke="black" points="99,-172.5 99,-191.5 226,-191.5 226,-172.5 99,-172.5"/>
<text text-anchor="start" x="123.5" y="-178.9" font-family="Roboto" font-size="12.00">TIMESTAMP ()</text>
<polygon fill="#bbdefb" stroke="transparent" points="8,-153.5 8,-172.5 99,-172.5 99,-153.5 8,-153.5"/>
<polygon fill="none" stroke="black" points="8,-153.5 8,-172.5 99,-172.5 99,-153.5 8,-153.5"/>
<text text-anchor="start" x="23.5" y="-159.9" font-family="Roboto" font-size="12.00">updated_at</text>
<polygon fill="#bbdefb" stroke="transparent" points="99,-153.5 99,-172.5 226,-172.5 226,-153.5 99,-153.5"/>
<polygon fill="none" stroke="black" points="99,-153.5 99,-172.5 226,-172.5 226,-153.5 99,-153.5"/>
<text text-anchor="start" x="123.5" y="-159.9" font-family="Roboto" font-size="12.00">TIMESTAMP ()</text>
<polygon fill="#bbdefb" stroke="transparent" points="8,-134.5 8,-153.5 99,-153.5 99,-134.5 8,-134.5"/>
<polygon fill="none" stroke="black" points="8,-134.5 8,-153.5 99,-153.5 99,-134.5 8,-134.5"/>
<text text-anchor="start" x="34.5" y="-140.9" font-family="Roboto" font-size="12.00">user_id</text>
<polygon fill="#bbdefb" stroke="transparent" points="99,-134.5 99,-153.5 226,-153.5 226,-134.5 99,-134.5"/>
<polygon fill="none" stroke="black" points="99,-134.5 99,-153.5 226,-153.5 226,-134.5 99,-134.5"/>
<text text-anchor="start" x="133" y="-140.9" font-family="Roboto" font-size="12.00">INTEGER ()</text>
<polygon fill="#bbdefb" stroke="transparent" points="8,-115.5 8,-134.5 99,-134.5 99,-115.5 8,-115.5"/>
<polygon fill="none" stroke="black" points="8,-115.5 8,-134.5 99,-134.5 99,-115.5 8,-115.5"/>
<text text-anchor="start" x="11" y="-121.9" font-family="Roboto" font-size="12.00">channel_type_id</text>
<polygon fill="#bbdefb" stroke="transparent" points="99,-115.5 99,-134.5 226,-134.5 226,-115.5 99,-115.5"/>
<polygon fill="none" stroke="black" points="99,-115.5 99,-134.5 226,-134.5 226,-115.5 99,-115.5"/>
<text text-anchor="start" x="133" y="-121.9" font-family="Roboto" font-size="12.00">INTEGER ()</text>
</a>
</g>
</g>
<!-- UserORM&#45;&gt;ChannelORM -->
<g id="edge1" class="edge">
<title>UserORM&#45;&gt;ChannelORM</title>
<g id="a_edge1"><a xlink:title="Relation between UserORM and ChannelORM">
<path fill="none" stroke="#1e88e5" stroke-dasharray="5,2" d="M90.1,-337.98C88.87,-331.93 87.81,-325.9 87,-320 86.17,-313.99 85.91,-307.84 86.09,-301.66"/>
<polygon fill="#1e88e5" stroke="#1e88e5" points="89.61,-301.48 86.81,-291.26 82.63,-300.99 89.61,-301.48"/>
</a>
</g>
<text text-anchor="middle" x="107" y="-312" font-family="Roboto" font-size="10.00">channels</text>
</g>
<!-- ChannelORM&#45;&gt;UserORM -->
<g id="edge3" class="edge">
<title>ChannelORM&#45;&gt;UserORM</title>
<g id="a_edge3"><a xlink:title="Relation between ChannelORM and UserORM">
<path fill="none" stroke="#1e88e5" stroke-dasharray="5,2" d="M127.05,-291.31C127.4,-300.99 127.44,-310.69 127,-320 126.88,-322.56 126.74,-325.15 126.59,-327.76"/>
<polygon fill="#1e88e5" stroke="#1e88e5" points="123.09,-327.72 125.95,-337.92 130.08,-328.16 123.09,-327.72"/>
</a>
</g>
<text text-anchor="middle" x="137" y="-312" font-family="Roboto" font-size="10.00">user</text>
</g>
<!-- ChannelTypeORM -->
<g id="node4" class="node">
<title>ChannelTypeORM</title>
<g id="a_node4"><a xlink:href="http://ChannelTypeORM_details.html" xlink:title="&lt;TABLE&gt;">
<polygon fill="#3f51b5" stroke="transparent" points="56,-41.5 56,-60.5 179,-60.5 179,-41.5 56,-41.5"/>
<polygon fill="none" stroke="black" points="56,-41.5 56,-60.5 179,-60.5 179,-41.5 56,-41.5"/>
<text text-anchor="start" x="69" y="-47.9" font-family="Roboto" font-size="12.00" fill="white">ChannelTypeORM</text>
<polygon fill="#bbdefb" stroke="transparent" points="56,-22.5 56,-41.5 85,-41.5 85,-22.5 56,-22.5"/>
<polygon fill="none" stroke="black" points="56,-22.5 56,-41.5 85,-41.5 85,-22.5 56,-22.5"/>
<text text-anchor="start" x="65.5" y="-28.9" font-family="Roboto" font-size="12.00">id</text>
<polygon fill="#bbdefb" stroke="transparent" points="85,-22.5 85,-41.5 179,-41.5 179,-22.5 85,-22.5"/>
<polygon fill="none" stroke="black" points="85,-22.5 85,-41.5 179,-41.5 179,-22.5 85,-22.5"/>
<text text-anchor="start" x="95" y="-28.9" font-family="Roboto" font-size="12.00">INTEGER (PK)</text>
<polygon fill="#bbdefb" stroke="transparent" points="56,-3.5 56,-22.5 85,-22.5 85,-3.5 56,-3.5"/>
<polygon fill="none" stroke="black" points="56,-3.5 56,-22.5 85,-22.5 85,-3.5 56,-3.5"/>
<text text-anchor="start" x="59" y="-9.9" font-family="Roboto" font-size="12.00">type</text>
<polygon fill="#bbdefb" stroke="transparent" points="85,-3.5 85,-22.5 179,-22.5 179,-3.5 85,-3.5"/>
<polygon fill="none" stroke="black" points="85,-3.5 85,-22.5 179,-22.5 179,-3.5 85,-3.5"/>
<text text-anchor="start" x="88" y="-9.9" font-family="Roboto" font-size="12.00">INTEGER (Index)</text>
</a>
</g>
</g>
<!-- ChannelORM&#45;&gt;ChannelTypeORM -->
<g id="edge2" class="edge">
<title>ChannelORM&#45;&gt;ChannelTypeORM</title>
<g id="a_edge2"><a xlink:title="Relation between ChannelORM and ChannelTypeORM">
<path fill="none" stroke="#1e88e5" stroke-dasharray="5,2" d="M95.04,-111.88C94.67,-102.12 95.18,-92.34 97,-83 97.52,-80.32 98.19,-77.6 98.96,-74.89"/>
<polygon fill="#1e88e5" stroke="#1e88e5" points="102.35,-75.76 102.13,-65.17 95.7,-73.59 102.35,-75.76"/>
</a>
</g>
<text text-anchor="middle" x="106.5" y="-86" font-family="Roboto" font-size="10.00">type</text>
</g>
<!-- MessageLogORM -->
<g id="node3" class="node">
<title>MessageLogORM</title>
<g id="a_node3"><a xlink:href="http://MessageLogORM_details.html" xlink:title="&lt;TABLE&gt;">
<polygon fill="#3f51b5" stroke="transparent" points="251,-465.5 251,-484.5 405,-484.5 405,-465.5 251,-465.5"/>
<polygon fill="none" stroke="black" points="251,-465.5 251,-484.5 405,-484.5 405,-465.5 251,-465.5"/>
<text text-anchor="start" x="280.5" y="-471.9" font-family="Roboto" font-size="12.00" fill="white">MessageLogORM</text>
<polygon fill="#bbdefb" stroke="transparent" points="251,-446.5 251,-465.5 321,-465.5 321,-446.5 251,-446.5"/>
<polygon fill="none" stroke="black" points="251,-446.5 251,-465.5 321,-465.5 321,-446.5 251,-446.5"/>
<text text-anchor="start" x="281" y="-452.9" font-family="Roboto" font-size="12.00">id</text>
<polygon fill="#bbdefb" stroke="transparent" points="321,-446.5 321,-465.5 405,-465.5 405,-446.5 321,-446.5"/>
<polygon fill="none" stroke="black" points="321,-446.5 321,-465.5 405,-465.5 405,-446.5 321,-446.5"/>
<text text-anchor="start" x="326" y="-452.9" font-family="Roboto" font-size="12.00">INTEGER (PK)</text>
<polygon fill="#bbdefb" stroke="transparent" points="251,-427.5 251,-446.5 321,-446.5 321,-427.5 251,-427.5"/>
<polygon fill="none" stroke="black" points="251,-427.5 251,-446.5 321,-446.5 321,-427.5 251,-427.5"/>
<text text-anchor="start" x="254" y="-433.9" font-family="Roboto" font-size="12.00">message_id</text>
<polygon fill="#bbdefb" stroke="transparent" points="321,-427.5 321,-446.5 405,-446.5 405,-427.5 321,-427.5"/>
<polygon fill="none" stroke="black" points="321,-427.5 321,-446.5 405,-446.5 405,-427.5 321,-427.5"/>
<text text-anchor="start" x="325" y="-433.9" font-family="Roboto" font-size="12.00">BIGINT (Index)</text>
<polygon fill="#bbdefb" stroke="transparent" points="251,-408.5 251,-427.5 321,-427.5 321,-408.5 251,-408.5"/>
<polygon fill="none" stroke="black" points="251,-408.5 251,-427.5 321,-427.5 321,-408.5 251,-408.5"/>
<text text-anchor="start" x="276" y="-414.9" font-family="Roboto" font-size="12.00">text</text>
<polygon fill="#bbdefb" stroke="transparent" points="321,-408.5 321,-427.5 405,-427.5 405,-408.5 321,-408.5"/>
<polygon fill="none" stroke="black" points="321,-408.5 321,-427.5 405,-427.5 405,-408.5 321,-408.5"/>
<text text-anchor="start" x="330.5" y="-414.9" font-family="Roboto" font-size="12.00">VARCHAR ()</text>
<polygon fill="#bbdefb" stroke="transparent" points="251,-389.5 251,-408.5 321,-408.5 321,-389.5 251,-389.5"/>
<polygon fill="none" stroke="black" points="251,-389.5 251,-408.5 321,-408.5 321,-389.5 251,-389.5"/>
<text text-anchor="start" x="258.5" y="-395.9" font-family="Roboto" font-size="12.00">created_at</text>
<polygon fill="#bbdefb" stroke="transparent" points="321,-389.5 321,-408.5 405,-408.5 405,-389.5 321,-389.5"/>
<polygon fill="none" stroke="black" points="321,-389.5 321,-408.5 405,-408.5 405,-389.5 321,-389.5"/>
<text text-anchor="start" x="324" y="-395.9" font-family="Roboto" font-size="12.00">TIMESTAMP ()</text>
<polygon fill="#bbdefb" stroke="transparent" points="251,-370.5 251,-389.5 321,-389.5 321,-370.5 251,-370.5"/>
<polygon fill="none" stroke="black" points="251,-370.5 251,-389.5 321,-389.5 321,-370.5 251,-370.5"/>
<text text-anchor="start" x="256" y="-376.9" font-family="Roboto" font-size="12.00">updated_at</text>
<polygon fill="#bbdefb" stroke="transparent" points="321,-370.5 321,-389.5 405,-389.5 405,-370.5 321,-370.5"/>
<polygon fill="none" stroke="black" points="321,-370.5 321,-389.5 405,-389.5 405,-370.5 321,-370.5"/>
<text text-anchor="start" x="324" y="-376.9" font-family="Roboto" font-size="12.00">TIMESTAMP ()</text>
</a>
</g>
</g>
<!-- ChannelTypeORM&#45;&gt;ChannelORM -->
<g id="edge4" class="edge">
<title>ChannelTypeORM&#45;&gt;ChannelORM</title>
<g id="a_edge4"><a xlink:title="Relation between ChannelTypeORM and ChannelORM">
<path fill="none" stroke="#1e88e5" stroke-dasharray="5,2" d="M117,-65.15C117,-75.84 117,-88.42 117,-101.52"/>
<polygon fill="#1e88e5" stroke="#1e88e5" points="113.5,-101.62 117,-111.62 120.5,-101.62 113.5,-101.62"/>
</a>
</g>
<text text-anchor="middle" x="137" y="-86" font-family="Roboto" font-size="10.00">channels</text>
</g>
</g>
</svg>
