<?xml version="1.0" encoding="UTF-8" standalone="no"?>
<!DOCTYPE svg PUBLIC "-//W3C//DTD SVG 1.1//EN"
 "http://www.w3.org/Graphics/SVG/1.1/DTD/svg11.dtd">
<!-- Generated by graphviz version 2.43.0 (0)
 -->
<!-- Title: %3 Pages: 1 -->
<svg width="452pt" height="563pt"
 viewBox="0.00 0.00 452.00 563.00" xmlns="http://www.w3.org/2000/svg" xmlns:xlink="http://www.w3.org/1999/xlink">
<g id="graph0" class="graph" transform="scale(1 1) rotate(0) translate(4 559)">
<title>%3</title>
<polygon fill="#eeeeee" stroke="transparent" points="-4,4 -4,-559 448,-559 448,4 -4,4"/>
<!-- UserORM -->
<g id="node1" class="node">
<title>UserORM</title>
<g id="a_node1"><a xlink:href="http://UserORM_details.html" xlink:title="&lt;TABLE&gt;">
<polygon fill="#3f51b5" stroke="transparent" points="8.5,-531.5 8.5,-550.5 231.5,-550.5 231.5,-531.5 8.5,-531.5"/>
<polygon fill="none" stroke="black" points="8.5,-531.5 8.5,-550.5 231.5,-550.5 231.5,-531.5 8.5,-531.5"/>
<text text-anchor="start" x="91.5" y="-537.9" font-family="Roboto" font-size="12.00" fill="white">UserORM</text>
<polygon fill="#bbdefb" stroke="transparent" points="8.5,-512.5 8.5,-531.5 90.5,-531.5 90.5,-512.5 8.5,-512.5"/>
<polygon fill="none" stroke="black" points="8.5,-512.5 8.5,-531.5 90.5,-531.5 90.5,-512.5 8.5,-512.5"/>
<text text-anchor="start" x="44" y="-518.9" font-family="Roboto" font-size="12.00">id</text>
<polygon fill="#bbdefb" stroke="transparent" points="90.5,-512.5 90.5,-531.5 231.5,-531.5 231.5,-512.5 90.5,-512.5"/>
<polygon fill="none" stroke="black" points="90.5,-512.5 90.5,-531.5 231.5,-531.5 231.5,-512.5 90.5,-512.5"/>
<text text-anchor="start" x="120.5" y="-518.9" font-family="Roboto" font-size="12.00">INTEGER (PK)</text>
<polygon fill="#bbdefb" stroke="transparent" points="8.5,-493.5 8.5,-512.5 90.5,-512.5 90.5,-493.5 8.5,-493.5"/>
<polygon fill="none" stroke="black" points="8.5,-493.5 8.5,-512.5 90.5,-512.5 90.5,-493.5 8.5,-493.5"/>
<text text-anchor="start" x="28" y="-499.9" font-family="Roboto" font-size="12.00">user_id</text>
<polygon fill="#bbdefb" stroke="transparent" points="90.5,-493.5 90.5,-512.5 231.5,-512.5 231.5,-493.5 90.5,-493.5"/>
<polygon fill="none" stroke="black" points="90.5,-493.5 90.5,-512.5 231.5,-512.5 231.5,-493.5 90.5,-493.5"/>
<text text-anchor="start" x="117" y="-499.9" font-family="Roboto" font-size="12.00">BIGINT (Index)</text>
<polygon fill="#bbdefb" stroke="transparent" points="8.5,-474.5 8.5,-493.5 90.5,-493.5 90.5,-474.5 8.5,-474.5"/>
<polygon fill="none" stroke="black" points="8.5,-474.5 8.5,-493.5 90.5,-493.5 90.5,-474.5 8.5,-474.5"/>
<text text-anchor="start" x="19" y="-480.9" font-family="Roboto" font-size="12.00">username</text>
<polygon fill="#bbdefb" stroke="transparent" points="90.5,-474.5 90.5,-493.5 231.5,-493.5 231.5,-474.5 90.5,-474.5"/>
<polygon fill="none" stroke="black" points="90.5,-474.5 90.5,-493.5 231.5,-493.5 231.5,-474.5 90.5,-474.5"/>
<text text-anchor="start" x="93.5" y="-480.9" font-family="Roboto" font-size="12.00">VARCHAR(255) (Index)</text>
<polygon fill="#bbdefb" stroke="transparent" points="8.5,-455.5 8.5,-474.5 90.5,-474.5 90.5,-455.5 8.5,-455.5"/>
<polygon fill="none" stroke="black" points="8.5,-455.5 8.5,-474.5 90.5,-474.5 90.5,-455.5 8.5,-455.5"/>
<text text-anchor="start" x="20.5" y="-461.9" font-family="Roboto" font-size="12.00">firstname</text>
<polygon fill="#bbdefb" stroke="transparent" points="90.5,-455.5 90.5,-474.5 231.5,-474.5 231.5,-455.5 90.5,-455.5"/>
<polygon fill="none" stroke="black" points="90.5,-455.5 90.5,-474.5 231.5,-474.5 231.5,-455.5 90.5,-455.5"/>
<text text-anchor="start" x="93.5" y="-461.9" font-family="Roboto" font-size="12.00">VARCHAR(255) (Index)</text>
<polygon fill="#bbdefb" stroke="transparent" points="8.5,-436.5 8.5,-455.5 90.5,-455.5 90.5,-436.5 8.5,-436.5"/>
<polygon fill="none" stroke="black" points="8.5,-436.5 8.5,-455.5 90.5,-455.5 90.5,-436.5 8.5,-436.5"/>
<text text-anchor="start" x="21.5" y="-442.9" font-family="Roboto" font-size="12.00">lastname</text>
<polygon fill="#bbdefb" stroke="transparent" points="90.5,-436.5 90.5,-455.5 231.5,-455.5 231.5,-436.5 90.5,-436.5"/>
<polygon fill="none" stroke="black" points="90.5,-436.5 90.5,-455.5 231.5,-455.5 231.5,-436.5 90.5,-436.5"/>
<text text-anchor="start" x="93.5" y="-442.9" font-family="Roboto" font-size="12.00">VARCHAR(255) (Index)</text>
<polygon fill="#bbdefb" stroke="transparent" points="8.5,-417.5 8.5,-436.5 90.5,-436.5 90.5,-417.5 8.5,-417.5"/>
<polygon fill="none" stroke="black" points="8.5,-417.5 8.5,-436.5 90.5,-436.5 90.5,-417.5 8.5,-417.5"/>
<text text-anchor="start" x="11.5" y="-423.9" font-family="Roboto" font-size="12.00">is_superuser</text>
<polygon fill="#bbdefb" stroke="transparent" points="90.5,-417.5 90.5,-436.5 231.5,-436.5 231.5,-417.5 90.5,-417.5"/>
<polygon fill="none" stroke="black" points="90.5,-417.5 90.5,-436.5 231.5,-436.5 231.5,-417.5 90.5,-417.5"/>
<text text-anchor="start" x="108" y="-423.9" font-family="Roboto" font-size="12.00">BOOLEAN (Index)</text>
<polygon fill="#bbdefb" stroke="transparent" points="8.5,-398.5 8.5,-417.5 90.5,-417.5 90.5,-398.5 8.5,-398.5"/>
<polygon fill="none" stroke="black" points="8.5,-398.5 8.5,-417.5 90.5,-417.5 90.5,-398.5 8.5,-398.5"/>
<text text-anchor="start" x="17.5" y="-404.9" font-family="Roboto" font-size="12.00">created_at</text>
<polygon fill="#bbdefb" stroke="transparent" points="90.5,-398.5 90.5,-417.5 231.5,-417.5 231.5,-398.5 90.5,-398.5"/>
<polygon fill="none" stroke="black" points="90.5,-398.5 90.5,-417.5 231.5,-417.5 231.5,-398.5 90.5,-398.5"/>
<text text-anchor="start" x="119.5" y="-404.9" font-family="Roboto" font-size="12.00">TIMESTAMP ()</text>
<polygon fill="#bbdefb" stroke="transparent" points="8.5,-379.5 8.5,-398.5 90.5,-398.5 90.5,-379.5 8.5,-379.5"/>
<polygon fill="none" stroke="black" points="8.5,-379.5 8.5,-398.5 90.5,-398.5 90.5,-379.5 8.5,-379.5"/>
<text text-anchor="start" x="15.5" y="-385.9" font-family="Roboto" font-size="12.00">updated_at</text>
<polygon fill="#bbdefb" stroke="transparent" points="90.5,-379.5 90.5,-398.5 231.5,-398.5 231.5,-379.5 90.5,-379.5"/>
<polygon fill="none" stroke="black" points="90.5,-379.5 90.5,-398.5 231.5,-398.5 231.5,-379.5 90.5,-379.5"/>
<text text-anchor="start" x="119.5" y="-385.9" font-family="Roboto" font-size="12.00">TIMESTAMP ()</text>
</a>
</g>
</g>
<!-- ChannelORM -->
<g id="node2" class="node">
<title>ChannelORM</title>
<g id="a_node2"><a xlink:href="http://ChannelORM_details.html" xlink:title="&lt;TABLE&gt;">
<polygon fill="#3f51b5" stroke="transparent" points="12.5,-306 12.5,-325 227.5,-325 227.5,-306 12.5,-306"/>
<polygon fill="none" stroke="black" points="12.5,-306 12.5,-325 227.5,-325 227.5,-306 12.5,-306"/>
<text text-anchor="start" x="81" y="-312.4" font-family="Roboto" font-size="12.00" fill="white">ChannelORM</text>
<polygon fill="#bbdefb" stroke="transparent" points="12.5,-287 12.5,-306 86.5,-306 86.5,-287 12.5,-287"/>
<polygon fill="none" stroke="black" points="12.5,-287 12.5,-306 86.5,-306 86.5,-287 12.5,-287"/>
<text text-anchor="start" x="44" y="-293.4" font-family="Roboto" font-size="12.00">id</text>
<polygon fill="#bbdefb" stroke="transparent" points="86.5,-287 86.5,-306 227.5,-306 227.5,-287 86.5,-287"/>
<polygon fill="none" stroke="black" points="86.5,-287 86.5,-306 227.5,-306 227.5,-287 86.5,-287"/>
<text text-anchor="start" x="116.5" y="-293.4" font-family="Roboto" font-size="12.00">INTEGER (PK)</text>
<polygon fill="#bbdefb" stroke="transparent" points="12.5,-268 12.5,-287 86.5,-287 86.5,-268 12.5,-268"/>
<polygon fill="none" stroke="black" points="12.5,-268 12.5,-287 86.5,-287 86.5,-268 12.5,-268"/>
<text text-anchor="start" x="41.5" y="-274.4" font-family="Roboto" font-size="12.00">url</text>
<polygon fill="#bbdefb" stroke="transparent" points="86.5,-268 86.5,-287 227.5,-287 227.5,-268 86.5,-268"/>
<polygon fill="none" stroke="black" points="86.5,-268 86.5,-287 227.5,-287 227.5,-268 86.5,-268"/>
<text text-anchor="start" x="89.5" y="-274.4" font-family="Roboto" font-size="12.00">VARCHAR(255) (Index)</text>
<polygon fill="#bbdefb" stroke="transparent" points="12.5,-249 12.5,-268 86.5,-268 86.5,-249 12.5,-249"/>
<polygon fill="none" stroke="black" points="12.5,-249 12.5,-268 86.5,-268 86.5,-249 12.5,-249"/>
<text text-anchor="start" x="35" y="-255.4" font-family="Roboto" font-size="12.00">label</text>
<polygon fill="#bbdefb" stroke="transparent" points="86.5,-249 86.5,-268 227.5,-268 227.5,-249 86.5,-249"/>
<polygon fill="none" stroke="black" points="86.5,-249 86.5,-268 227.5,-268 227.5,-249 86.5,-249"/>
<text text-anchor="start" x="89.5" y="-255.4" font-family="Roboto" font-size="12.00">VARCHAR(255) (Index)</text>
<polygon fill="#bbdefb" stroke="transparent" points="12.5,-230 12.5,-249 86.5,-249 86.5,-230 12.5,-230"/>
<polygon fill="none" stroke="black" points="12.5,-230 12.5,-249 86.5,-249 86.5,-230 12.5,-230"/>
<text text-anchor="start" x="25" y="-236.4" font-family="Roboto" font-size="12.00">enabled</text>
<polygon fill="#bbdefb" stroke="transparent" points="86.5,-230 86.5,-249 227.5,-249 227.5,-230 86.5,-230"/>
<polygon fill="none" stroke="black" points="86.5,-230 86.5,-249 227.5,-249 227.5,-230 86.5,-230"/>
<text text-anchor="start" x="104" y="-236.4" font-family="Roboto" font-size="12.00">BOOLEAN (Index)</text>
<polygon fill="#bbdefb" stroke="transparent" points="12.5,-211 12.5,-230 86.5,-230 86.5,-211 12.5,-211"/>
<polygon fill="none" stroke="black" points="12.5,-211 12.5,-230 86.5,-230 86.5,-211 12.5,-211"/>
<text text-anchor="start" x="17.5" y="-217.4" font-family="Roboto" font-size="12.00">created_at</text>
<polygon fill="#bbdefb" stroke="transparent" points="86.5,-211 86.5,-230 227.5,-230 227.5,-211 86.5,-211"/>
<polygon fill="none" stroke="black" points="86.5,-211 86.5,-230 227.5,-230 227.5,-211 86.5,-211"/>
<text text-anchor="start" x="115.5" y="-217.4" font-family="Roboto" font-size="12.00">TIMESTAMP ()</text>
<polygon fill="#bbdefb" stroke="transparent" points="12.5,-192 12.5,-211 86.5,-211 86.5,-192 12.5,-192"/>
<polygon fill="none" stroke="black" points="12.5,-192 12.5,-211 86.5,-211 86.5,-192 12.5,-192"/>
<text text-anchor="start" x="15.5" y="-198.4" font-family="Roboto" font-size="12.00">updated_at</text>
<polygon fill="#bbdefb" stroke="transparent" points="86.5,-192 86.5,-211 227.5,-211 227.5,-192 86.5,-192"/>
<polygon fill="none" stroke="black" points="86.5,-192 86.5,-211 227.5,-211 227.5,-192 86.5,-192"/>
<text text-anchor="start" x="115.5" y="-198.4" font-family="Roboto" font-size="12.00">TIMESTAMP ()</text>
<polygon fill="#bbdefb" stroke="transparent" points="12.5,-173 12.5,-192 86.5,-192 86.5,-173 12.5,-173"/>
<polygon fill="none" stroke="black" points="12.5,-173 12.5,-192 86.5,-192 86.5,-173 12.5,-173"/>
<text text-anchor="start" x="28" y="-179.4" font-family="Roboto" font-size="12.00">user_id</text>
<polygon fill="#bbdefb" stroke="transparent" points="86.5,-173 86.5,-192 227.5,-192 227.5,-173 86.5,-173"/>
<polygon fill="none" stroke="black" points="86.5,-173 86.5,-192 227.5,-192 227.5,-173 86.5,-173"/>
<text text-anchor="start" x="124" y="-179.4" font-family="Roboto" font-size="12.00">INTEGER ()</text>
</a>
</g>
</g>
<!-- UserORM&#45;&gt;ChannelORM -->
<g id="edge1" class="edge">
<title>UserORM&#45;&gt;ChannelORM</title>
<g id="a_edge1"><a xlink:title="Relation between UserORM and ChannelORM">
<path fill="none" stroke="#1e88e5" stroke-dasharray="5,2" d="M87.04,-375.76C86,-366.12 85.99,-356.39 87.5,-347 87.93,-344.34 88.42,-341.66 88.96,-338.96"/>
<polygon fill="#1e88e5" stroke="#1e88e5" points="92.38,-339.68 91.14,-329.16 85.55,-338.16 92.38,-339.68"/>
</a>
</g>
<text text-anchor="middle" x="109.5" y="-350" font-family="Roboto" font-size="10.00">channels</text>
</g>
<!-- ChannelORM&#45;&gt;UserORM -->
<g id="edge2" class="edge">
<title>ChannelORM&#45;&gt;UserORM</title>
<g id="a_edge2"><a xlink:title="Relation between ChannelORM and UserORM">
<path fill="none" stroke="#1e88e5" stroke-dasharray="5,2" d="M130.1,-329.07C130.66,-335.13 131.14,-341.16 131.5,-347 131.87,-352.97 132,-359.1 131.93,-365.28"/>
<polygon fill="#1e88e5" stroke="#1e88e5" points="128.42,-365.62 131.66,-375.7 135.42,-365.8 128.42,-365.62"/>
</a>
</g>
<text text-anchor="middle" x="142.5" y="-350" font-family="Roboto" font-size="10.00">user</text>
</g>
<!-- ChannelErrorORM -->
<g id="node4" class="node">
<title>ChannelErrorORM</title>
<g id="a_node4"><a xlink:href="http://ChannelErrorORM_details.html" xlink:title="&lt;TABLE&gt;">
<polygon fill="#3f51b5" stroke="transparent" points="12.5,-99 12.5,-118 227.5,-118 227.5,-99 12.5,-99"/>
<polygon fill="none" stroke="black" points="12.5,-99 12.5,-118 227.5,-118 227.5,-99 12.5,-99"/>
<text text-anchor="start" x="66.5" y="-105.4" font-family="Roboto" font-size="12.00" fill="white">ChannelErrorORM</text>
<polygon fill="#bbdefb" stroke="transparent" points="12.5,-80 12.5,-99 86.5,-99 86.5,-80 12.5,-80"/>
<polygon fill="none" stroke="black" points="12.5,-80 12.5,-99 86.5,-99 86.5,-80 12.5,-80"/>
<text text-anchor="start" x="44" y="-86.4" font-family="Roboto" font-size="12.00">id</text>
<polygon fill="#bbdefb" stroke="transparent" points="86.5,-80 86.5,-99 227.5,-99 227.5,-80 86.5,-80"/>
<polygon fill="none" stroke="black" points="86.5,-80 86.5,-99 227.5,-99 227.5,-80 86.5,-80"/>
<text text-anchor="start" x="116.5" y="-86.4" font-family="Roboto" font-size="12.00">INTEGER (PK)</text>
<polygon fill="#bbdefb" stroke="transparent" points="12.5,-61 12.5,-80 86.5,-80 86.5,-61 12.5,-61"/>
<polygon fill="none" stroke="black" points="12.5,-61 12.5,-80 86.5,-80 86.5,-61 12.5,-61"/>
<text text-anchor="start" x="34.5" y="-67.4" font-family="Roboto" font-size="12.00">error</text>
<polygon fill="#bbdefb" stroke="transparent" points="86.5,-61 86.5,-80 227.5,-80 227.5,-61 86.5,-61"/>
<polygon fill="none" stroke="black" points="86.5,-61 86.5,-80 227.5,-80 227.5,-61 86.5,-61"/>
<text text-anchor="start" x="89.5" y="-67.4" font-family="Roboto" font-size="12.00">VARCHAR(512) (Index)</text>
<polygon fill="#bbdefb" stroke="transparent" points="12.5,-42 12.5,-61 86.5,-61 86.5,-42 12.5,-42"/>
<polygon fill="none" stroke="black" points="12.5,-42 12.5,-61 86.5,-61 86.5,-42 12.5,-42"/>
<text text-anchor="start" x="17.5" y="-48.4" font-family="Roboto" font-size="12.00">created_at</text>
<polygon fill="#bbdefb" stroke="transparent" points="86.5,-42 86.5,-61 227.5,-61 227.5,-42 86.5,-42"/>
<polygon fill="none" stroke="black" points="86.5,-42 86.5,-61 227.5,-61 227.5,-42 86.5,-42"/>
<text text-anchor="start" x="115.5" y="-48.4" font-family="Roboto" font-size="12.00">TIMESTAMP ()</text>
<polygon fill="#bbdefb" stroke="transparent" points="12.5,-23 12.5,-42 86.5,-42 86.5,-23 12.5,-23"/>
<polygon fill="none" stroke="black" points="12.5,-23 12.5,-42 86.5,-42 86.5,-23 12.5,-23"/>
<text text-anchor="start" x="15.5" y="-29.4" font-family="Roboto" font-size="12.00">updated_at</text>
<polygon fill="#bbdefb" stroke="transparent" points="86.5,-23 86.5,-42 227.5,-42 227.5,-23 86.5,-23"/>
<polygon fill="none" stroke="black" points="86.5,-23 86.5,-42 227.5,-42 227.5,-23 86.5,-23"/>
<text text-anchor="start" x="115.5" y="-29.4" font-family="Roboto" font-size="12.00">TIMESTAMP ()</text>
<polygon fill="#bbdefb" stroke="transparent" points="12.5,-4 12.5,-23 86.5,-23 86.5,-4 12.5,-4"/>
<polygon fill="none" stroke="black" points="12.5,-4 12.5,-23 86.5,-23 86.5,-4 12.5,-4"/>
<text text-anchor="start" x="17.5" y="-10.4" font-family="Roboto" font-size="12.00">channel_id</text>
<polygon fill="#bbdefb" stroke="transparent" points="86.5,-4 86.5,-23 227.5,-23 227.5,-4 86.5,-4"/>
<polygon fill="none" stroke="black" points="86.5,-4 86.5,-23 227.5,-23 227.5,-4 86.5,-4"/>
<text text-anchor="start" x="124" y="-10.4" font-family="Roboto" font-size="12.00">INTEGER ()</text>
</a>
</g>
</g>
<!-- ChannelORM&#45;&gt;ChannelErrorORM -->
<g id="edge3" class="edge">
<title>ChannelORM&#45;&gt;ChannelErrorORM</title>
<g id="a_edge3"><a xlink:title="Relation between ChannelORM and ChannelErrorORM">
<path fill="none" stroke="#1e88e5" stroke-dasharray="5,2" d="M94.07,-168.93C93.06,-159.22 93.03,-149.41 94.5,-140 94.92,-137.33 95.41,-134.62 95.97,-131.9"/>
<polygon fill="#1e88e5" stroke="#1e88e5" points="99.41,-132.55 98.23,-122.02 92.59,-130.99 99.41,-132.55"/>
</a>
</g>
<text text-anchor="middle" x="109" y="-143" font-family="Roboto" font-size="10.00">errors</text>
</g>
<!-- MessageLogORM -->
<g id="node3" class="node">
<title>MessageLogORM</title>
<g id="a_node3"><a xlink:href="http://MessageLogORM_details.html" xlink:title="&lt;TABLE&gt;">
<polygon fill="#3f51b5" stroke="transparent" points="265.5,-503.5 265.5,-522.5 436.5,-522.5 436.5,-503.5 265.5,-503.5"/>
<polygon fill="none" stroke="black" points="265.5,-503.5 265.5,-522.5 436.5,-522.5 436.5,-503.5 265.5,-503.5"/>
<text text-anchor="start" x="299.5" y="-509.9" font-family="Roboto" font-size="12.00" fill="white">MessageLogORM</text>
<polygon fill="#bbdefb" stroke="transparent" points="265.5,-484.5 265.5,-503.5 342.5,-503.5 342.5,-484.5 265.5,-484.5"/>
<polygon fill="none" stroke="black" points="265.5,-484.5 265.5,-503.5 342.5,-503.5 342.5,-484.5 265.5,-484.5"/>
<text text-anchor="start" x="298.5" y="-490.9" font-family="Roboto" font-size="12.00">id</text>
<polygon fill="#bbdefb" stroke="transparent" points="342.5,-484.5 342.5,-503.5 436.5,-503.5 436.5,-484.5 342.5,-484.5"/>
<polygon fill="none" stroke="black" points="342.5,-484.5 342.5,-503.5 436.5,-503.5 436.5,-484.5 342.5,-484.5"/>
<text text-anchor="start" x="349" y="-490.9" font-family="Roboto" font-size="12.00">INTEGER (PK)</text>
<polygon fill="#bbdefb" stroke="transparent" points="265.5,-465.5 265.5,-484.5 342.5,-484.5 342.5,-465.5 265.5,-465.5"/>
<polygon fill="none" stroke="black" points="265.5,-465.5 265.5,-484.5 342.5,-484.5 342.5,-465.5 265.5,-465.5"/>
<text text-anchor="start" x="268.5" y="-471.9" font-family="Roboto" font-size="12.00">message_id</text>
<polygon fill="#bbdefb" stroke="transparent" points="342.5,-465.5 342.5,-484.5 436.5,-484.5 436.5,-465.5 342.5,-465.5"/>
<polygon fill="none" stroke="black" points="342.5,-465.5 342.5,-484.5 436.5,-484.5 436.5,-465.5 342.5,-465.5"/>
<text text-anchor="start" x="345.5" y="-471.9" font-family="Roboto" font-size="12.00">BIGINT (Index)</text>
<polygon fill="#bbdefb" stroke="transparent" points="265.5,-446.5 265.5,-465.5 342.5,-465.5 342.5,-446.5 265.5,-446.5"/>
<polygon fill="none" stroke="black" points="265.5,-446.5 265.5,-465.5 342.5,-465.5 342.5,-446.5 265.5,-446.5"/>
<text text-anchor="start" x="292" y="-452.9" font-family="Roboto" font-size="12.00">text</text>
<polygon fill="#bbdefb" stroke="transparent" points="342.5,-446.5 342.5,-465.5 436.5,-465.5 436.5,-446.5 342.5,-446.5"/>
<polygon fill="none" stroke="black" points="342.5,-446.5 342.5,-465.5 436.5,-465.5 436.5,-446.5 342.5,-446.5"/>
<text text-anchor="start" x="354.5" y="-452.9" font-family="Roboto" font-size="12.00">VARCHAR ()</text>
<polygon fill="#bbdefb" stroke="transparent" points="265.5,-427.5 265.5,-446.5 342.5,-446.5 342.5,-427.5 265.5,-427.5"/>
<polygon fill="none" stroke="black" points="265.5,-427.5 265.5,-446.5 342.5,-446.5 342.5,-427.5 265.5,-427.5"/>
<text text-anchor="start" x="272" y="-433.9" font-family="Roboto" font-size="12.00">created_at</text>
<polygon fill="#bbdefb" stroke="transparent" points="342.5,-427.5 342.5,-446.5 436.5,-446.5 436.5,-427.5 342.5,-427.5"/>
<polygon fill="none" stroke="black" points="342.5,-427.5 342.5,-446.5 436.5,-446.5 436.5,-427.5 342.5,-427.5"/>
<text text-anchor="start" x="348" y="-433.9" font-family="Roboto" font-size="12.00">TIMESTAMP ()</text>
<polygon fill="#bbdefb" stroke="transparent" points="265.5,-408.5 265.5,-427.5 342.5,-427.5 342.5,-408.5 265.5,-408.5"/>
<polygon fill="none" stroke="black" points="265.5,-408.5 265.5,-427.5 342.5,-427.5 342.5,-408.5 265.5,-408.5"/>
<text text-anchor="start" x="270" y="-414.9" font-family="Roboto" font-size="12.00">updated_at</text>
<polygon fill="#bbdefb" stroke="transparent" points="342.5,-408.5 342.5,-427.5 436.5,-427.5 436.5,-408.5 342.5,-408.5"/>
<polygon fill="none" stroke="black" points="342.5,-408.5 342.5,-427.5 436.5,-427.5 436.5,-408.5 342.5,-408.5"/>
<text text-anchor="start" x="348" y="-414.9" font-family="Roboto" font-size="12.00">TIMESTAMP ()</text>
</a>
</g>
</g>
<!-- ChannelErrorORM&#45;&gt;ChannelORM -->
<g id="edge4" class="edge">
<title>ChannelErrorORM&#45;&gt;ChannelORM</title>
<g id="a_edge4"><a xlink:title="Relation between ChannelErrorORM and ChannelORM">
<path fill="none" stroke="#1e88e5" stroke-dasharray="5,2" d="M122.89,-122.03C123.14,-128.1 123.35,-134.17 123.5,-140 123.66,-146.15 123.71,-152.51 123.68,-158.9"/>
<polygon fill="#1e88e5" stroke="#1e88e5" points="120.18,-158.93 123.57,-168.97 127.18,-159.01 120.18,-158.93"/>
</a>
</g>
<text text-anchor="middle" x="143" y="-143" font-family="Roboto" font-size="10.00">channel</text>
</g>
</g>
</svg>
